<svg xmlns="http://www.w3.org/2000/svg" viewBox="0 0 179.15 67.9"><defs><style>.cls-1{fill:#1d1d1b;}</style></defs><g id="Layer_2" data-name="Layer 2"><g id="Layer_1-2" data-name="Layer 1"><polygon class="cls-1" points="160.52 48.6 156.29 63.24 150.86 58.1 145.42 52.95 160.52 48.6"/><path class="cls-1" d="M152.58,59.73c-7.38,5.07-17.34,8.17-28.31,8.17-15.2,0-28.48-6-35.63-14.82a27.77,27.77,0,0,1-2.71-4,11.74,11.74,0,0,0,2.39.25A11.57,11.57,0,0,0,91.1,49a11.29,11.29,0,0,0,4.7-2.49c4.76,9.43,17.25,16.16,31.91,16.16a42.16,42.16,0,0,0,21.86-5.77l1.29,1.23Z"/><path class="cls-1" d="M93,27.75a11.32,11.32,0,0,0-4.66-1,11.74,11.74,0,0,0-2.39.25,11.07,11.07,0,0,0-3.33,1.31C78.4,16.63,64.88,8.09,48.87,8.09c-14.35,0-26.7,6.86-32.12,16.68A13.59,13.59,0,0,0,3.94,23.41C10.55,9.73,27.61,0,47.61,0,66.55,0,82.85,8.73,90.14,21.27A30.81,30.81,0,0,1,93,27.75Z"/><path class="cls-1" d="M9.52,30.54a5.47,5.47,0,0,0,0,10.94,6.85,6.85,0,0,0,4.62-2.08L16.5,42a10.39,10.39,0,0,1-7.18,3.17A9,9,0,0,1,0,36.05c0-5.13,4.09-9,9.47-9a10.08,10.08,0,0,1,7,3l-2.34,2.84A6.42,6.42,0,0,0,9.52,30.54Z"/><path class="cls-1" d="M23.69,41.66A3.14,3.14,0,0,0,25,41.28l.38,3.25a6.05,6.05,0,0,1-2.59.61c-2.28,0-4.21-1.52-4.21-4.7V26.12h3.88V40.19C22.47,41.2,23,41.66,23.69,41.66Z"/><path class="cls-1" d="M31.16,31.3V45H27.25V31.3Zm-.05-3.88a1.91,1.91,0,1,1-1.91-2A1.87,1.87,0,0,1,31.11,27.42Z"/><path class="cls-1" d="M40.91,34.5c-1.91,0-3.25,1.47-3.25,3.66s1.34,3.7,3.25,3.7a3.53,3.53,0,0,0,3.17-1.59l2.69,1.82a6.68,6.68,0,0,1-6.06,3,6.59,6.59,0,0,1-7-6.93,6.63,6.63,0,0,1,7-7A6.81,6.81,0,0,1,46.67,34L44,36A3.76,3.76,0,0,0,40.91,34.5Z"/><path class="cls-1" d="M55,39.4l-1.75,1.86V45H49.34V26.12h3.91V36.48l5-5.15H62.7l-5,5.25L62.92,45H58.3Z"/><path class="cls-1" d="M80.09,44.2a7.22,7.22,0,0,1-3.48.94,4.14,4.14,0,0,1-4.36-4.52V28.15h3.88v3.76h3.73v2.72H76.13V40c0,1.3.53,1.88,1.4,1.88a3.67,3.67,0,0,0,1.75-.51Z"/><path class="cls-1" d="M95.83,38.13c0,4.17-2.94,7-7.31,7s-7.34-2.81-7.34-7,2.95-7,7.34-7S95.83,33.94,95.83,38.13Zm-10.74,0a3.43,3.43,0,0,0,3.43,3.76c2,0,3.4-1.52,3.4-3.76s-1.39-3.75-3.4-3.75A3.43,3.43,0,0,0,85.09,38.18Z"/><path class="cls-1" d="M118.06,35.8h3.47V45h-3V43.49a8,8,0,0,1-4.67,1.65,8.87,8.87,0,0,1-9-9.06c0-5.13,4.17-9,9.65-9a11.49,11.49,0,0,1,7.21,2.59l-2.28,2.87a7.44,7.44,0,0,0-4.88-2A5.47,5.47,0,0,0,109,36.08a5.38,5.38,0,0,0,5.38,5.56,5,5,0,0,0,3.71-1.7Z"/><path class="cls-1" d="M133.42,31.15v3.68c-2.79-.25-4.52,1.25-4.52,3.56V45H125V31.3h3.91v2.47A5,5,0,0,1,133.42,31.15Z"/><path class="cls-1" d="M145.56,40.29l2.23,2a7.7,7.7,0,0,1-6.14,2.79c-4.34,0-7.26-2.79-7.26-7a6.6,6.6,0,0,1,7-7c4,0,6.58,2.38,6.73,6.29L138.68,40a3.41,3.41,0,0,0,3.25,2.11A4.85,4.85,0,0,0,145.56,40.29Zm-7.26-2.67,6-1.62a2.59,2.59,0,0,0-2.69-1.93C139.67,34.07,138.42,35.31,138.3,37.62Z"/><path class="cls-1" d="M160.54,40.29l2.23,2a7.7,7.7,0,0,1-6.14,2.79c-4.34,0-7.26-2.79-7.26-7s2.71-7,7-7c4,0,6.57,2.38,6.72,6.29L153.66,40a3.41,3.41,0,0,0,3.25,2.11A4.85,4.85,0,0,0,160.54,40.29Zm-7.26-2.67,6-1.62a2.59,2.59,0,0,0-2.69-1.93C154.65,34.07,153.41,35.31,153.28,37.62Z"/><path class="cls-1" d="M179.15,36.38V45h-3.91V37.52a2.53,2.53,0,0,0-2.69-2.79c-2,0-3.12,1.5-3.12,3.5V45h-3.91V31.3h3.91v2.39a5.1,5.1,0,0,1,4.72-2.54C177.2,31.15,179.15,33.18,179.15,36.38Z"/></g></g></svg>